<svg width="185" height="34" viewBox="0 0 185 34" fill="none" xmlns="http://www.w3.org/2000/svg">
<path d="M0.6 22.888C1.176 22.8667 1.61333 22.8027 1.912 22.696C2.21067 22.568 2.44533 22.312 2.616 21.928C2.78667 21.544 2.872 20.936 2.872 20.104V7.848C2.872 6.65333 2.91467 5.69333 3 4.968L0.6 5.064V2.6H9.784V4.712C9.208 4.73333 8.77067 4.808 8.472 4.936C8.17333 5.04267 7.93867 5.288 7.768 5.672C7.59733 6.056 7.512 6.664 7.512 7.496V19.752C7.512 20.904 7.46933 21.8427 7.384 22.568H11.672C12.952 22.5467 13.944 22.0987 14.648 21.224C15.352 20.328 15.704 19.0267 15.704 17.32H17.848L17.656 25H0.6V22.888ZM25.9673 25.512C24.0686 25.512 22.7033 24.9573 21.8713 23.848C21.0606 22.7387 20.6553 20.936 20.6553 18.44V14.76C20.6553 13.864 20.6873 12.936 20.7513 11.976L18.5113 12.072V9.64C19.8553 9.64 20.9433 9.544 21.7753 9.352C22.6073 9.16 23.1619 8.936 23.4393 8.68H25.1993V18.472C25.1993 19.88 25.3806 20.9147 25.7433 21.576C26.1059 22.2373 26.6819 22.568 27.4713 22.568C28.0046 22.568 28.5486 22.4187 29.1033 22.12C29.6793 21.8213 30.1593 21.4587 30.5433 21.032V14.76C30.5433 13.7573 30.5859 12.8293 30.6713 11.976L28.4313 12.072V9.64C29.7753 9.64 30.8526 9.544 31.6633 9.352C32.4953 9.16 33.0499 8.936 33.3273 8.68H35.0873V19.848C35.0873 20.872 35.0446 21.8107 34.9593 22.664C35.6419 22.6 36.3353 22.568 37.0393 22.568V25H30.9593L30.7673 23.336H30.7353C29.9459 24.0187 29.1779 24.552 28.4313 24.936C27.7059 25.32 26.8846 25.512 25.9673 25.512ZM39.0925 22.952C39.4978 22.7813 39.8818 22.536 40.2445 22.216C40.6072 21.896 41.0338 21.448 41.5245 20.872L44.3085 17.672L41.1725 13.992C41.1085 13.928 40.8312 13.5867 40.3405 12.968C39.8498 12.3493 39.5192 11.816 39.3485 11.368L38.4845 11.432V9H45.5565V11.048C45.0445 11.0693 44.7885 11.24 44.7885 11.56C44.7885 11.88 45.0125 12.296 45.4605 12.808L46.9325 14.536H46.9645L48.1805 13.064C48.2658 12.9787 48.4685 12.744 48.7885 12.36C49.1085 11.976 49.4285 11.6347 49.7485 11.336V11.304L48.1805 11.432V9H53.8125V11.048C52.6178 11.56 51.5512 12.4133 50.6125 13.608L48.4685 16.232L52.1805 20.552C52.9272 21.4267 53.4392 22.12 53.7165 22.632L54.8045 22.568V25H47.2525V22.952C47.9778 22.9307 48.3405 22.7387 48.3405 22.376C48.3405 22.12 48.1592 21.7893 47.7965 21.384L45.8765 19.368H45.8445L44.3725 21.16C44.2018 21.3733 43.9565 21.6507 43.6365 21.992C43.3378 22.3333 43.1032 22.5573 42.9325 22.664V22.696L44.4045 22.568V25H39.0925V22.952ZM67.6958 25.512C65.6051 25.512 63.7278 25.0107 62.0638 24.008C60.4211 23.0053 59.1304 21.64 58.1918 19.912C57.2744 18.184 56.8158 16.264 56.8158 14.152C56.8158 12.0613 57.2318 10.0987 58.0638 8.264C58.9171 6.42933 60.1758 4.94667 61.8398 3.816C63.5251 2.664 65.5518 2.088 67.9198 2.088C70.2664 2.088 72.4211 2.73867 74.3838 4.04L74.2238 2.312H75.9518V9.736H74.7998C74.5864 7.752 73.8824 6.20533 72.6878 5.096C71.5144 3.96533 69.9998 3.4 68.1438 3.4C66.6291 3.4 65.2424 3.82667 63.9838 4.68C62.7464 5.512 61.7651 6.70667 61.0398 8.264C60.3144 9.82133 59.9518 11.624 59.9518 13.672C59.9518 15.6347 60.3358 17.3947 61.1038 18.952C61.8718 20.488 62.9064 21.6933 64.2078 22.568C65.5091 23.4213 66.9491 23.848 68.5278 23.848C69.9571 23.848 71.3331 23.528 72.6558 22.888C73.9784 22.248 75.0664 21.3413 75.9198 20.168L76.7518 20.84C75.5144 22.568 74.0958 23.784 72.4958 24.488C70.8958 25.1707 69.2958 25.512 67.6958 25.512ZM78.8068 24.04C79.4254 24.04 79.8734 23.8907 80.1508 23.592C80.4281 23.272 80.5881 22.8667 80.6308 22.376C80.6948 21.8853 80.7268 21.1387 80.7268 20.136V5C80.7268 4.18933 80.7588 3.496 80.8228 2.92L78.5508 3.048V1.704C79.8308 1.704 80.7374 1.62933 81.2708 1.48C81.8254 1.33067 82.2521 1.11733 82.5508 0.839998H83.4788V10.6C84.2254 9.98133 85.0681 9.48 86.0068 9.096C86.9454 8.69067 87.8521 8.488 88.7268 8.488C90.5614 8.488 91.8948 9.064 92.7268 10.216C93.5588 11.368 93.9854 13.1813 94.0068 15.656L94.0388 21.608C94.0388 22.568 93.9961 23.2933 93.9108 23.784L95.9268 23.688V25H89.3988V24.04C90.0174 24.04 90.4548 23.8907 90.7108 23.592C90.9881 23.272 91.1481 22.8773 91.1908 22.408C91.2548 21.9173 91.2868 21.16 91.2868 20.136V15.656C91.2868 13.8213 90.9988 12.456 90.4228 11.56C89.8468 10.6427 88.9401 10.184 87.7028 10.184C86.9134 10.184 86.1241 10.376 85.3348 10.76C84.5668 11.1227 83.9481 11.592 83.4788 12.168V21.608C83.4788 22.44 83.4254 23.1653 83.3188 23.784L85.3348 23.688V25H78.8068V24.04ZM102.763 25.512C101.206 25.512 100.011 25.16 99.179 24.456C98.3683 23.752 97.963 22.8347 97.963 21.704C97.963 20.4667 98.4537 19.4213 99.435 18.568C100.438 17.7147 101.686 17.0853 103.179 16.68C104.694 16.2533 106.208 16.0507 107.723 16.072V14.088C107.723 12.7013 107.52 11.624 107.115 10.856C106.71 10.0667 105.846 9.672 104.523 9.672C103.862 9.672 103.232 9.81067 102.635 10.088C102.038 10.3653 101.6 10.7813 101.323 11.336C101.6 11.6347 101.739 12.04 101.739 12.552C101.739 12.872 101.622 13.1813 101.387 13.48C101.152 13.7573 100.811 13.896 100.363 13.896C99.915 13.896 99.563 13.7573 99.307 13.48C99.051 13.1813 98.923 12.7973 98.923 12.328C98.923 11.624 99.1897 10.984 99.723 10.408C100.278 9.81067 101.035 9.34133 101.995 9C102.976 8.65867 104.064 8.488 105.259 8.488C107.051 8.488 108.374 8.968 109.227 9.928C110.08 10.8667 110.496 12.36 110.475 14.408L110.443 21.608C110.443 22.2907 110.4 23.016 110.315 23.784L112.587 23.656V25H108.011C107.947 24.68 107.872 24.072 107.787 23.176C106.23 24.7333 104.555 25.512 102.763 25.512ZM103.499 23.688C104.31 23.688 105.046 23.5387 105.707 23.24C106.368 22.92 107.04 22.44 107.723 21.8C107.702 21.48 107.691 20.936 107.691 20.168L107.723 17.16C105.974 17.224 104.416 17.5867 103.051 18.248C101.686 18.888 101.003 19.88 101.003 21.224C101.003 22.0133 101.238 22.6213 101.707 23.048C102.176 23.4747 102.774 23.688 103.499 23.688ZM123.615 0.679998C124.362 0.679998 124.938 0.829332 125.343 1.128C125.748 1.40533 125.951 1.81067 125.951 2.344C125.951 2.64267 125.844 2.93067 125.631 3.208C125.439 3.48533 125.14 3.624 124.735 3.624C124.308 3.624 123.967 3.47467 123.711 3.176C123.476 2.87733 123.37 2.49333 123.391 2.024C123.263 1.93866 123.018 1.896 122.655 1.896C121.652 1.896 120.927 2.49333 120.479 3.688C120.052 4.88267 119.743 6.65333 119.551 9H124.095L123.999 10.248L119.455 10.312L119.359 12.104C119.21 14.6 119.092 16.3813 119.007 17.448L118.815 19.72C118.559 22.856 118.26 25.3307 117.919 27.144C117.578 28.9787 116.938 30.5253 115.999 31.784C115.06 33.0427 113.684 33.672 111.871 33.672C111.06 33.672 110.442 33.5333 110.015 33.256C109.588 32.9787 109.375 32.5627 109.375 32.008C109.375 31.7093 109.482 31.4107 109.695 31.112C109.908 30.8347 110.218 30.696 110.623 30.696C111.028 30.696 111.348 30.824 111.583 31.08C111.818 31.3573 111.935 31.72 111.935 32.168C112.17 32.3387 112.479 32.424 112.863 32.424C113.631 32.424 114.218 31.9973 114.623 31.144C115.028 30.312 115.316 29.224 115.487 27.88C115.658 26.536 115.839 24.5413 116.031 21.896C116.159 19.7627 116.276 18.184 116.383 17.16L116.575 14.856C116.682 13.256 116.81 11.752 116.959 10.344L114.143 10.376L114.303 9H117.119C117.503 6.35467 118.175 4.30667 119.135 2.856C120.095 1.40533 121.588 0.679998 123.615 0.679998ZM134.021 0.679998C134.768 0.679998 135.344 0.829332 135.749 1.128C136.155 1.40533 136.357 1.81067 136.357 2.344C136.357 2.64267 136.251 2.93067 136.037 3.208C135.845 3.48533 135.547 3.624 135.141 3.624C134.715 3.624 134.373 3.47467 134.117 3.176C133.883 2.87733 133.776 2.49333 133.797 2.024C133.669 1.93866 133.424 1.896 133.061 1.896C132.059 1.896 131.333 2.49333 130.885 3.688C130.459 4.88267 130.149 6.65333 129.957 9H134.501L134.405 10.248L129.861 10.312L129.765 12.104C129.616 14.6 129.499 16.3813 129.413 17.448L129.221 19.72C128.965 22.856 128.667 25.3307 128.325 27.144C127.984 28.9787 127.344 30.5253 126.405 31.784C125.467 33.0427 124.091 33.672 122.277 33.672C121.467 33.672 120.848 33.5333 120.421 33.256C119.995 32.9787 119.781 32.5627 119.781 32.008C119.781 31.7093 119.888 31.4107 120.101 31.112C120.315 30.8347 120.624 30.696 121.029 30.696C121.435 30.696 121.755 30.824 121.989 31.08C122.224 31.3573 122.341 31.72 122.341 32.168C122.576 32.3387 122.885 32.424 123.269 32.424C124.037 32.424 124.624 31.9973 125.029 31.144C125.435 30.312 125.723 29.224 125.893 27.88C126.064 26.536 126.245 24.5413 126.437 21.896C126.565 19.7627 126.683 18.184 126.789 17.16L126.981 14.856C127.088 13.256 127.216 11.752 127.365 10.344L124.549 10.376L124.709 9H127.525C127.909 6.35467 128.581 4.30667 129.541 2.856C130.501 1.40533 131.995 0.679998 134.021 0.679998ZM143.34 25.512C141.868 25.512 140.534 25.1707 139.34 24.488C138.166 23.784 137.238 22.792 136.556 21.512C135.873 20.2107 135.532 18.7173 135.532 17.032C135.532 15.5387 135.873 14.1413 136.556 12.84C137.238 11.5173 138.188 10.4613 139.404 9.672C140.641 8.88267 142.038 8.488 143.595 8.488C144.812 8.488 145.91 8.75467 146.892 9.288C147.873 9.82133 148.652 10.6213 149.228 11.688C149.804 12.7333 150.092 14.024 150.092 15.56L138.828 15.752C138.806 18.312 139.222 20.3067 140.076 21.736C140.95 23.1653 142.294 23.88 144.108 23.88C145.089 23.88 146.092 23.624 147.116 23.112C148.161 22.6 148.961 21.9707 149.516 21.224L150.284 21.864C149.473 23.1013 148.417 24.0187 147.116 24.616C145.836 25.2133 144.577 25.512 143.34 25.512ZM147.084 14.408C147.084 13.128 146.796 12.0293 146.22 11.112C145.644 10.1947 144.78 9.736 143.628 9.736C140.982 9.736 139.414 11.2933 138.924 14.408H147.084ZM159.691 25.512C157.878 25.512 156.545 24.9893 155.691 23.944C154.859 22.8987 154.443 21.096 154.443 18.536V12.84C154.443 11.944 154.486 11.2507 154.571 10.76L152.363 10.856V9.544H153.355C154.187 9.544 154.817 9.46933 155.243 9.32C155.67 9.17067 156.033 8.95733 156.331 8.68H157.259V18.44C157.259 20.3173 157.515 21.6933 158.027 22.568C158.561 23.4427 159.435 23.88 160.651 23.88C161.441 23.88 162.209 23.6453 162.955 23.176C163.723 22.7067 164.342 22.12 164.811 21.416V13.192C164.811 12.1893 164.865 11.3787 164.971 10.76L162.667 10.856V9.544H163.659C164.491 9.544 165.121 9.46933 165.547 9.32C165.974 9.17067 166.337 8.95733 166.635 8.68H167.563L167.531 20.776C167.531 22.0133 167.489 23.016 167.403 23.784L169.707 23.656V25H165.131C165.025 24.3387 164.95 23.6987 164.907 23.08C164.203 23.784 163.382 24.3707 162.443 24.84C161.505 25.288 160.587 25.512 159.691 25.512ZM172.033 24.04C172.652 24.04 173.089 23.8907 173.345 23.592C173.622 23.272 173.782 22.8773 173.825 22.408C173.889 21.9173 173.921 21.16 173.921 20.136V12.84C173.921 11.944 173.964 11.2507 174.049 10.76L171.777 10.856V9.544H172.769C173.58 9.544 174.166 9.48 174.529 9.352C174.892 9.20267 175.233 8.97867 175.553 8.68H176.481C176.566 9.512 176.62 10.568 176.641 11.848C177.174 10.9733 177.932 10.1947 178.913 9.512C179.916 8.82933 180.95 8.488 182.017 8.488C182.657 8.488 183.19 8.65867 183.617 9C184.044 9.34133 184.257 9.84267 184.257 10.504C184.257 10.8453 184.118 11.1867 183.841 11.528C183.585 11.8693 183.212 12.04 182.721 12.04C182.252 12.04 181.868 11.8693 181.569 11.528C181.27 11.1653 181.153 10.7387 181.217 10.248C180.406 10.2267 179.585 10.536 178.753 11.176C177.942 11.816 177.249 12.6693 176.673 13.736L176.705 21.608C176.705 22.568 176.662 23.2933 176.577 23.784L178.593 23.688V25H172.033V24.04Z" fill="#A55C30"/>
</svg>
